<svg id="icons" enable-background="new 0 0 64 64" height="512" viewBox="0 0 64 64" width="512" xmlns="http://www.w3.org/2000/svg"><path fill="#dddddd" d="m38 0c-2.307 0-4.406.879-6 2.311-1.594-1.432-3.693-2.311-6-2.311-4.963 0-9 4.037-9 9v3h-13c-.553 0-1 .447-1 1v50c0 .553.447 1 1 1h44 12c.145 0 .279-.033.403-.088.031-.014.056-.04.085-.058.092-.053.177-.11.246-.188.011-.011.024-.014.034-.025.031-.037.041-.082.065-.122.037-.059.074-.114.098-.181s.032-.136.042-.207c.006-.045.027-.084.027-.131v-50c0-.553-.447-1-1-1h-12-1v-3c0-4.963-4.037-9-9-9zm-7 9c0-1.312.369-2.536 1-3.587.631 1.051 1 2.275 1 3.587v3h-2zm-12 0c0-3.859 3.141-7 7-7 1.794 0 3.428.685 4.668 1.799-1.046 1.471-1.668 3.263-1.668 5.201v3h-10zm-14 5h12v6c0 .553.447 1 1 1s1-.447 1-1v-6h14v6c0 .553.447 1 1 1s1-.447 1-1v-6h12v48h-42zm49 45.303 3.237 2.697h-6.475zm-1-1.772-4 3.333v-46.864h4zm6 3.333-4-3.333v-43.531h4zm-24-48.864v-3c0-1.938-.622-3.73-1.668-5.201 1.24-1.114 2.874-1.799 4.668-1.799 3.859 0 7 3.141 7 7v3z"/><path fill="#dddddd" d="m25.007 25.997c-.553 0-1 .447-1 1v7.004h-1v-7.004c0-.553-.447-1-1-1s-1 .447-1 1v7.004h-1.003v-7.004c0-.553-.447-1-1-1s-1 .447-1 1v7.004h-1v-7.004c0-.553-.447-1-1-1s-1 .447-1 1v10.006c0 1.654 1.346 3 3 3v15.501c0 1.379 1.122 2.501 2.502 2.501 1.379 0 2.501-1.122 2.501-2.501v-15.501c1.654 0 3-1.346 3-3v-10.006c0-.553-.447-1-1-1zm-4 29.507c0 .276-.225.501-.501.501s-.502-.225-.502-.501v-15.501h1.003zm2-17.501h-.98c-.007 0-.013-.004-.02-.004s-.013.004-.02.004h-2.964c-.007 0-.013-.004-.02-.004s-.013.004-.02.004h-.98c-.552 0-1-.448-1-1v-1.002h7.003v1.002c.001.552-.447 1-.999 1z"/><path d="m29.997 25.994c-.553 0-1 .447-1 1 0 .001.001.002.001.004 0 .001-.001.002-.001.003v28.503c0 1.379 1.122 2.501 2.502 2.501 1.379 0 2.501-1.122 2.501-2.501v-10.5h2.997c.553 0 1-.447 1-1v-10.01c0-4.411-3.589-8-8-8zm2.003 29.51c0 .276-.225.501-.501.501s-.502-.225-.502-.501v-10.5h1.003zm3.997-12.5h-5v-14.92c2.833.479 5 2.943 5 5.91z" fill="#dddddd"/></svg>